<svg viewBox="0 0 40 39" fill="none" xmlns="http://www.w3.org/2000/svg">
  <path d="M38.4992 38.9032H1.39154C0.63083 38.9032 0 38.2724 0 37.5117C0 36.7509 0.63083 36.1201 1.39154 36.1201H38.4992C39.2599 36.1201 39.8907 36.7509 39.8907 37.5117C39.8907 38.2724 39.2599 38.9032 38.4992 38.9032Z" fill="#F18CE7"/>
  <path d="M4.54614 37.5111H1.76306L1.85581 15.1909C1.85581 13.6138 2.57943 12.1481 3.82254 11.1833L16.8102 1.07148C18.647 -0.357161 21.226 -0.357161 23.0814 1.07148L36.0691 11.1648C37.2936 12.1296 38.0358 13.6324 38.0358 15.1909V37.5111H35.2527V15.2095C35.2527 14.5044 34.9188 13.818 34.3621 13.3727L21.3745 3.27939C20.5395 2.63 19.3706 2.63 18.5172 3.27939L5.52947 13.3912C4.97285 13.818 4.63889 14.5044 4.63889 15.2095L4.54614 37.5111Z" fill="#F18CE7"/>
  <path d="M24.5838 38.9032H15.3069C14.5462 38.9032 13.9153 38.2724 13.9153 37.5117V31.0179C13.9153 28.7172 15.7893 26.8433 18.09 26.8433H21.8007C24.1014 26.8433 25.9753 28.7172 25.9753 31.0179V37.5117C25.9753 38.2724 25.3445 38.9032 24.5838 38.9032ZM16.6984 36.1202H23.1923V31.0179C23.1923 30.2572 22.5614 29.6263 21.8007 29.6263H18.09C17.3292 29.6263 16.6984 30.2572 16.6984 31.0179V36.1202Z" fill="#F18CE7"/>
  <path d="M15.3068 23.5964H11.596C9.81487 23.5964 8.34912 22.1306 8.34912 20.3495V17.5664C8.34912 15.7852 9.81487 14.3195 11.596 14.3195H15.3068C17.088 14.3195 18.5537 15.7852 18.5537 17.5664V20.3495C18.5537 22.1306 17.088 23.5964 15.3068 23.5964ZM11.596 17.1025C11.3363 17.1025 11.1322 17.3066 11.1322 17.5664V20.3495C11.1322 20.6092 11.3363 20.8133 11.596 20.8133H15.3068C15.5666 20.8133 15.7707 20.6092 15.7707 20.3495V17.5664C15.7707 17.3066 15.5666 17.1025 15.3068 17.1025H11.596Z" fill="#F18CE7"/>
  <path d="M28.2945 23.5964H24.5838C22.8026 23.5964 21.3369 22.1306 21.3369 20.3495V17.5664C21.3369 15.7852 22.8026 14.3195 24.5838 14.3195H28.2945C30.0757 14.3195 31.5415 15.7852 31.5415 17.5664V20.3495C31.5415 22.1306 30.0757 23.5964 28.2945 23.5964ZM24.5838 17.1025C24.324 17.1025 24.1199 17.3066 24.1199 17.5664V20.3495C24.1199 20.6092 24.324 20.8133 24.5838 20.8133H28.2945C28.5543 20.8133 28.7584 20.6092 28.7584 20.3495V17.5664C28.7584 17.3066 28.5543 17.1025 28.2945 17.1025H24.5838Z" fill="#F18CE7"/>
  <path d="M32.9331 11.0725C32.1724 11.0725 31.5416 10.4602 31.5416 9.69952L31.5045 5.50634H24.7324C23.9717 5.50634 23.3408 4.87551 23.3408 4.1148C23.3408 3.3541 23.9717 2.72327 24.7324 2.72327H32.896C33.6567 2.72327 34.2876 3.33552 34.2876 4.09623L34.3432 9.66238C34.3247 10.4416 33.7124 11.0725 32.9331 11.0725Z" fill="#F18CE7"/>
</svg>