<svg viewBox="0 0 48 46" fill="none" xmlns="http://www.w3.org/2000/svg">
  <path d="M43.2672 19.8444L41.3113 28.1872C39.6347 35.3923 36.3216 38.3063 30.0944 37.7075C29.0965 37.6277 28.0187 37.448 26.8611 37.1686L23.508 36.3703C15.1851 34.3943 12.6104 30.2828 14.5664 21.94L16.5224 13.5773C16.9215 11.8808 17.4006 10.4039 17.9993 9.18638C20.3346 4.35635 24.3064 3.05903 30.9726 4.63577L34.3057 5.41417C42.6685 7.37013 45.2232 11.5016 43.2672 19.8444Z" stroke="#F18CE7" stroke-width="6.45893" stroke-linecap="round" stroke-linejoin="round"/>
  <path d="M30.0942 37.7075C28.8568 38.5458 27.3 39.2443 25.4039 39.8631L22.2504 40.9009C14.3267 43.4557 10.1553 41.3201 7.58064 33.3964L5.02591 25.5127C2.47118 17.589 4.58681 13.3976 12.5105 10.8429L15.664 9.80506C16.4823 9.5456 17.2607 9.32605 17.9991 9.18634C17.4004 10.4038 16.9214 11.8808 16.5222 13.5773L14.5662 21.9401C12.6103 30.2828 15.185 34.3944 23.5078 36.3703L26.8609 37.1686C28.0185 37.4481 29.0963 37.6277 30.0942 37.7075Z" stroke="#F18CE7" stroke-width="6.45893" stroke-linecap="round" stroke-linejoin="round"/>
  <path d="M25.2642 16.0323L34.9442 18.4872" stroke="#F18CE7" stroke-width="6.45893" stroke-linecap="round" stroke-linejoin="round"/>
  <path d="M23.3082 23.7563L29.0963 25.2332" stroke="#F18CE7" stroke-width="6.45893" stroke-linecap="round" stroke-linejoin="round"/>
</svg>