<svg viewBox="0 0 40 40" fill="none" xmlns="http://www.w3.org/2000/svg">
  <path d="M18.078 25.8686L14.3825 29.5641C13.6035 30.3431 12.365 30.3431 11.5659 29.5841C11.3462 29.3643 11.1265 29.1646 10.9067 28.9448C8.84925 26.8674 6.9915 24.69 5.33352 22.4128C3.69551 20.1355 2.37711 17.8583 1.41828 15.601C0.479418 13.3238 0 11.1465 0 9.06898C0 7.71063 0.239709 6.41221 0.719126 5.21367C1.19854 3.99515 1.95762 2.87651 3.01633 1.87772C4.29478 0.619248 5.69308 0 7.17129 0C7.73061 0 8.28993 0.119855 8.78932 0.359563C9.30869 0.599272 9.76813 0.958835 10.1277 1.4782L14.7621 8.01027C15.1216 8.50966 15.3813 8.9691 15.5611 9.40857C15.7409 9.82806 15.8408 10.2476 15.8408 10.6271C15.8408 11.1065 15.7009 11.5859 15.4213 12.0454C15.1616 12.5048 14.782 12.9842 14.3026 13.4636L12.7845 15.0417C12.5647 15.2615 12.4649 15.5211 12.4649 15.8408C12.4649 16.0006 12.4848 16.1404 12.5248 16.3002C12.5847 16.46 12.6446 16.5799 12.6846 16.6997C13.0442 17.3589 13.6634 18.2179 14.5423 19.2566C15.4412 20.2953 16.4001 21.3541 17.4388 22.4128C17.6386 22.6125 17.8583 22.8123 18.0581 23.012C18.8571 23.7911 18.8771 25.0695 18.078 25.8686Z" fill="#F18CE7"/>
  <path d="M39.8907 32.6186C39.8907 33.1779 39.7908 33.7572 39.591 34.3165C39.5311 34.4763 39.4712 34.6361 39.3913 34.796C39.0517 35.5151 38.6122 36.1943 38.0329 36.8335C37.0541 37.9122 35.9754 38.6912 34.7569 39.1906C34.7369 39.1906 34.717 39.2106 34.697 39.2106C33.5184 39.69 32.24 39.9497 30.8617 39.9497C28.8241 39.9497 26.6468 39.4703 24.3496 38.4915C22.0524 37.5127 19.7551 36.1943 17.4779 34.5363C16.6989 33.957 15.9198 33.3777 15.1807 32.7584L21.7128 26.2264C22.2721 26.6459 22.7715 26.9655 23.191 27.1852C23.2909 27.2252 23.4107 27.2851 23.5505 27.345C23.7103 27.4049 23.8701 27.4249 24.0499 27.4249C24.3895 27.4249 24.6492 27.3051 24.8689 27.0853L26.3871 25.5871C26.8865 25.0877 27.3659 24.7082 27.8253 24.4685C28.2848 24.1888 28.7442 24.049 29.2436 24.049C29.6232 24.049 30.0227 24.1289 30.4621 24.3087C30.9016 24.4885 31.361 24.7482 31.8604 25.0877L38.4724 29.782C38.9918 30.1416 39.3513 30.5611 39.5711 31.0605C39.7708 31.5599 39.8907 32.0593 39.8907 32.6186Z" fill="#F18CE7"/>
</svg>