<svg width="42" height="42" viewBox="0 0 42 42" fill="none" xmlns="http://www.w3.org/2000/svg">
  <path d="M40.6054 9.37764C40.4885 7.29834 39.6098 5.33495 38.1372 3.86234C36.6646 2.38973 34.7012 1.51108 32.6219 1.39413C24.8803 0.956635 17.1202 0.956635 9.37853 1.39413C7.29922 1.51114 5.33582 2.38981 3.86315 3.86239C2.39049 5.33497 1.51171 7.29833 1.39459 9.37764C0.957092 17.1194 0.957092 24.8798 1.39459 32.6216C1.51173 34.7009 2.39051 36.6642 3.86317 38.1368C5.33583 39.6094 7.29922 40.488 9.37853 40.6051C17.1201 41.0437 24.8803 41.0437 32.6219 40.6051C34.7012 40.4881 36.6646 39.6094 38.1372 38.1368C39.6098 36.6642 40.4885 34.7009 40.6054 32.6216C41.0429 24.8798 41.0429 17.1194 40.6054 9.37764Z"
        fill="white"/>
  <path d="M9 9H11.2912C12.7132 9 13.8325 10.1735 13.714 11.5236L12.6211 24.0913C12.4367 26.148 14.1353 27.9146 16.2948 27.9146H30.3182C32.2143 27.9146 33.8734 26.4256 34.0182 24.6213L34.7293 15.1576C34.8873 13.063 33.2282 11.3596 31.0292 11.3596H14.03"
        stroke="#F18CE7" stroke-width="2.7171" stroke-miterlimit="10" stroke-linecap="round" stroke-linejoin="round"/>
  <path d="M27.7637 34.2363C28.6728 34.2363 29.4096 33.5301 29.4096 32.659C29.4096 31.7878 28.6728 31.0817 27.7637 31.0817C26.8546 31.0817 26.1177 31.7878 26.1177 32.659C26.1177 33.5301 26.8546 34.2363 27.7637 34.2363Z"
        stroke="#F18CE7" stroke-width="2.7171" stroke-miterlimit="10" stroke-linecap="round" stroke-linejoin="round"/>
  <path d="M17.2297 34.2363C18.1387 34.2363 18.8756 33.5301 18.8756 32.659C18.8756 31.7878 18.1387 31.0817 17.2297 31.0817C16.3206 31.0817 15.5837 31.7878 15.5837 32.659C15.5837 33.5301 16.3206 34.2363 17.2297 34.2363Z"
        stroke="#F18CE7" stroke-width="2.7171" stroke-miterlimit="10" stroke-linecap="round" stroke-linejoin="round"/>
  <path d="M18.2173 16.5709H34.0183" stroke="#F18CE7" stroke-width="2.7171" stroke-miterlimit="10"
        stroke-linecap="round" stroke-linejoin="round"/>
</svg>