<svg width="42" height="42" viewBox="0 0 35 35" fill="none" xmlns="http://www.w3.org/2000/svg">
  <path d="M17.3911 0.0754395C7.80862 0.0754395 0 7.88406 0 17.4666C0 27.0491 7.80862 34.8577 17.3911 34.8577C26.9737 34.8577 34.7823 27.0491 34.7823 17.4666C34.7823 7.88406 26.9737 0.0754395 17.3911 0.0754395ZM23.2346 21.4665C23.7389 21.9709 23.7389 22.8057 23.2346 23.31C22.9737 23.5709 22.6433 23.6926 22.3128 23.6926C21.9824 23.6926 21.652 23.5709 21.3911 23.31L17.3911 19.31L13.3912 23.31C13.1303 23.5709 12.7999 23.6926 12.4694 23.6926C12.139 23.6926 11.8086 23.5709 11.5477 23.31C11.0434 22.8057 11.0434 21.9709 11.5477 21.4665L15.5477 17.4666L11.5477 13.4666C11.0434 12.9623 11.0434 12.1275 11.5477 11.6232C12.0521 11.1188 12.8868 11.1188 13.3912 11.6232L17.3911 15.6231L21.3911 11.6232C21.8954 11.1188 22.7302 11.1188 23.2346 11.6232C23.7389 12.1275 23.7389 12.9623 23.2346 13.4666L19.2346 17.4666L23.2346 21.4665Z" fill="#F18CE7"/>
</svg>