<svg version="1.2" xmlns="http://www.w3.org/2000/svg" viewBox="0 0 63 63" width="63" height="63"><style>.a{fill:#fff}.b{fill:none;stroke:#f18ce7;stroke-linecap:round;stroke-width:3.8}.c{fill:none;stroke:#f18ce7;stroke-linecap:round;stroke-linejoin:round;stroke-width:3.4}</style><path class="a" d="m62.5 13.1c-0.2-3.3-1.6-6.4-3.9-8.7-2.3-2.3-5.4-3.7-8.7-3.9q-18.4-1-36.8 0c-3.3 0.2-6.4 1.6-8.7 3.9-2.3 2.3-3.7 5.4-3.9 8.7q-1 18.4 0 36.8c0.2 3.3 1.6 6.4 3.9 8.7 2.3 2.3 5.4 3.7 8.7 3.9q18.4 1 36.8 0c3.3-0.2 6.4-1.6 8.7-3.9 2.3-2.3 3.7-5.4 3.9-8.7q1-18.4 0-36.8z"/><path class="b" d="m36.2 26.3v6.1h5.5c0.4 0 0.6 0.4 0.6 0.9l-0.8 3.9c0 0.3-0.5 0.5-0.7 0.5h-4.6v15.3h-6.3v-15.1h-3.6q-0.6 0-0.6-0.7v-3.9q0-0.7 0.6-0.7h3.6v-6.9c0-3.6 2.7-6.3 6.3-6.3h5.7q0.6 0 0.6 0.6v5.1q0 0.6-0.6 0.6h-5.1q-0.6 0-0.6 0.6z"/><path class="c" d="m38.3 53h-12.6c-10.5 0-14.7-4.2-14.7-14.7v-12.6c0-10.5 4.2-14.7 14.7-14.7h12.6c10.5 0 14.7 4.2 14.7 14.7v12.6c0 10.5-4.2 14.7-14.7 14.7z"/></svg>