<svg version="1.2" xmlns="http://www.w3.org/2000/svg" viewBox="0 0 63 63" width="63" height="63"><style>.a{fill:#fff}.b{fill:none;stroke:#f18ce7;stroke-linecap:round;stroke-linejoin:round;stroke-width:3.5}.c{fill:none;stroke:#f18ce7;stroke-linecap:round;stroke-linejoin:round;stroke-width:5.3}.d{fill:none;stroke:#f18ce7;stroke-linecap:round;stroke-linejoin:round;stroke-width:5.4}</style><path class="a" d="m62.5 13.1c-0.2-3.3-1.6-6.4-3.9-8.7-2.3-2.3-5.4-3.7-8.7-3.9q-18.4-1-36.8 0c-3.3 0.2-6.4 1.6-8.7 3.9-2.3 2.3-3.7 5.4-3.9 8.7q-1 18.4 0 36.8c0.2 3.3 1.6 6.4 3.9 8.7 2.3 2.3 5.4 3.7 8.7 3.9q18.4 1 36.8 0c3.3-0.2 6.4-1.6 8.7-3.9 2.3-2.3 3.7-5.4 3.9-8.7q1-18.4 0-36.8z"/><path class="b" d="m26 51h12c10 0 14-4 14-14v-12c0-10-4-14-14-14h-12c-10 0-14 4-14 14v12c0 10 4 14 14 14z"/><path class="c" d="m32 38c3.9 0 7-3.1 7-7 0-3.9-3.1-7-7-7-3.9 0-7 3.1-7 7 0 3.9 3.1 7 7 7z"/><path class="d" d="m43.1 20.7l0.2 0.3"/></svg>