<svg viewBox="0 0 40 41" fill="none" xmlns="http://www.w3.org/2000/svg">
  <path d="M39.6478 9.15995C39.5306 7.07493 38.6495 5.10613 37.1728 3.62947C35.6962 2.15281 33.7274 1.27173 31.6423 1.15447C23.8794 0.715763 16.0979 0.715763 8.33494 1.15447C6.24991 1.2718 4.2811 2.15288 2.80438 3.62952C1.32767 5.10616 0.446472 7.07491 0.329028 9.15995C-0.109676 16.9231 -0.109676 24.7048 0.329028 32.4679C0.446491 34.5529 1.32769 36.5216 2.8044 37.9983C4.28112 39.4749 6.24991 40.356 8.33494 40.4733C16.0979 40.9131 23.8794 40.9131 31.6423 40.4733C33.7274 40.3561 35.6961 39.475 37.1728 37.9983C38.6495 36.5217 39.5305 34.5529 39.6478 32.4679C40.0865 24.7048 40.0865 16.9231 39.6478 9.15995Z" fill="white"/>
  <path d="M36.0991 20.8805C36.0991 12.0402 28.8953 4.83646 20.0551 4.83646C11.2148 4.83646 4.01102 12.0402 4.01102 20.8805C4.01102 25.5333 6.01652 29.7208 9.19324 32.6568C9.19324 32.6729 9.19324 32.6729 9.1772 32.6889C9.33764 32.8494 9.53017 32.9777 9.69061 33.1221C9.78687 33.2023 9.86709 33.2825 9.96336 33.3467C10.2522 33.5874 10.573 33.812 10.8779 34.0366C10.9902 34.1168 11.0864 34.181 11.1987 34.2612C11.5036 34.4698 11.8245 34.6623 12.1614 34.8388C12.2737 34.903 12.4021 34.9832 12.5144 35.0474C12.8352 35.2239 13.1722 35.3843 13.5251 35.5287C13.6535 35.5929 13.7818 35.6571 13.9102 35.7052C14.2632 35.8496 14.6161 35.9779 14.9691 36.0903C15.0975 36.1384 15.2258 36.1865 15.3542 36.2186C15.7392 36.3309 16.1243 36.4272 16.5093 36.5234C16.6216 36.5555 16.7339 36.5876 16.8623 36.6037C17.3115 36.6999 17.7608 36.7641 18.226 36.8122C18.2902 36.8122 18.3544 36.8283 18.4186 36.8443C18.9641 36.8925 19.5096 36.9245 20.0551 36.9245C20.6006 36.9245 21.1461 36.8925 21.6755 36.8443C21.7397 36.8443 21.8039 36.8283 21.868 36.8122C22.3333 36.7641 22.7825 36.6999 23.2318 36.6037C23.3441 36.5876 23.4564 36.5395 23.5848 36.5234C23.9698 36.4272 24.3709 36.347 24.7399 36.2186C24.8683 36.1705 24.9966 36.1223 25.125 36.0903C25.4779 35.9619 25.847 35.8496 26.1839 35.7052C26.3122 35.6571 26.4406 35.5929 26.5689 35.5287C26.9059 35.3843 27.2428 35.2239 27.5797 35.0474C27.7081 34.9832 27.8204 34.903 27.9327 34.8388C28.2536 34.6463 28.5744 34.4698 28.8953 34.2612C29.0076 34.1971 29.1039 34.1168 29.2162 34.0366C29.5371 33.812 29.8419 33.5874 30.1307 33.3467C30.227 33.2665 30.3072 33.1863 30.4035 33.1221C30.58 32.9777 30.7564 32.8333 30.9169 32.6889C30.9169 32.6729 30.9169 32.6729 30.9008 32.6568C34.0936 29.7208 36.0991 25.5333 36.0991 20.8805ZM27.9808 28.8544C23.6329 25.9344 16.5093 25.9344 12.1293 28.8544C11.4234 29.3197 10.8458 29.8652 10.3645 30.4588C7.92576 27.988 6.41762 24.6027 6.41762 20.8805C6.41762 13.3558 12.5304 7.24306 20.0551 7.24306C27.5797 7.24306 33.6925 13.3558 33.6925 20.8805C33.6925 24.6027 32.1844 27.988 29.7457 30.4588C29.2804 29.8652 28.6868 29.3197 27.9808 28.8544Z" fill="#F18CE7"/>
  <path d="M20.0551 12.7457C16.7339 12.7457 14.0385 15.4411 14.0385 18.7622C14.0385 22.0192 16.5895 24.6664 19.9748 24.7627H20.1192H20.2315H20.2636C23.5045 24.6504 26.0555 22.0192 26.0716 18.7622C26.0716 15.4411 23.3762 12.7457 20.0551 12.7457Z" fill="#F18CE7"/>
</svg>