<svg width="42" height="42" viewBox="0 0 32 32" fill="none" xmlns="http://www.w3.org/2000/svg">
  <path d="M28.2858 3.51732C23.5801 -1.17244 15.9493 -1.17244 11.2754 3.51732C7.98465 6.7763 6.999 11.4661 8.2708 15.5994L0.798988 23.0712C0.274371 23.6117 -0.0912711 24.6768 0.0200113 25.4399L0.496935 28.9056C0.671808 30.0502 1.73694 31.1312 2.88156 31.2902L6.34721 31.7671C7.11029 31.8784 8.17542 31.5286 8.71593 30.9722L10.0195 29.6686C10.3375 29.3666 10.3375 28.8579 10.0195 28.5399L6.93541 25.4558C6.47439 24.9948 6.47439 24.2317 6.93541 23.7707C7.39644 23.3097 8.15952 23.3097 8.62055 23.7707L11.7206 26.8707C12.0226 27.1727 12.5313 27.1727 12.8334 26.8707L16.2037 23.5163C20.3211 24.804 25.0109 23.8025 28.2858 20.5435C32.9755 15.8537 32.9755 8.20707 28.2858 3.51732ZM19.876 15.8855C17.6821 15.8855 15.9016 14.105 15.9016 11.9112C15.9016 9.71733 17.6821 7.93681 19.876 7.93681C22.0698 7.93681 23.8504 9.71733 23.8504 11.9112C23.8504 14.105 22.0698 15.8855 19.876 15.8855Z" fill="#F18CE7"/>
</svg>
