<svg fill="none" xmlns="http://www.w3.org/2000/svg">
  <path d="M40.0988 9.15995C39.9815 7.07493 39.1004 5.10613 37.6237 3.62947C36.1471 2.15281 34.1783 1.27173 32.0933 1.15447C24.3303 0.715763 16.5488 0.715763 8.78587 1.15447C6.70083 1.2718 4.73203 2.15288 3.25531 3.62952C1.77859 5.10616 0.8974 7.07491 0.779956 9.15995C0.341252 16.9231 0.341252 24.7048 0.779956 32.4679C0.897419 34.5529 1.77862 36.5216 3.25533 37.9983C4.73205 39.4749 6.70084 40.356 8.78587 40.4733C16.5488 40.9131 24.3304 40.9131 32.0933 40.4733C34.1783 40.3561 36.1471 39.475 37.6237 37.9983C39.1004 36.5217 39.9815 34.5529 40.0988 32.4679C40.5375 24.7048 40.5375 16.9231 40.0988 9.15995Z" fill="white"/>
  <path d="M34.2713 19.7614L31.9147 17.4019C31.5116 16.9983 31.186 16.2066 31.186 15.6477V12.2947C31.186 10.9286 30.0697 9.81097 28.7054 9.81097H25.3721C24.8139 9.81097 24.0232 9.48498 23.6201 9.08137L21.2635 6.72183C20.3023 5.75939 18.7209 5.75939 17.7597 6.72183L15.3721 9.08137C14.9845 9.48498 14.1938 9.81097 13.6201 9.81097H10.2868C8.92248 9.81097 7.8062 10.9286 7.8062 12.2947V15.6322C7.8062 16.191 7.48062 16.9827 7.07752 17.3863L4.72093 19.7459C3.75969 20.7083 3.75969 22.2917 4.72093 23.2541L7.07752 25.6137C7.48062 26.0173 7.8062 26.809 7.8062 27.3678V30.7053C7.8062 32.0714 8.92248 33.189 10.2868 33.189H13.6201C14.1783 33.189 14.969 33.515 15.3721 33.9186L17.7287 36.2782C18.6899 37.2406 20.2713 37.2406 21.2325 36.2782L23.5891 33.9186C23.9922 33.515 24.7829 33.189 25.341 33.189H28.6744C30.0387 33.189 31.155 32.0714 31.155 30.7053V27.3678C31.155 26.809 31.4806 26.0173 31.8837 25.6137L34.2403 23.2541C35.248 22.3072 35.248 20.7238 34.2713 19.7614ZM13.2946 16.8585C13.2946 16.0048 13.9922 15.3062 14.845 15.3062C15.6977 15.3062 16.3953 16.0048 16.3953 16.8585C16.3953 17.7123 15.7132 18.4109 14.845 18.4109C13.9922 18.4109 13.2946 17.7123 13.2946 16.8585ZM15.6667 26.9952C15.4341 27.2281 15.1395 27.3368 14.845 27.3368C14.5504 27.3368 14.2558 27.2281 14.0232 26.9952C13.5736 26.5451 13.5736 25.7999 14.0232 25.3498L23.3255 16.0358C23.7752 15.5856 24.5193 15.5856 24.969 16.0358C25.4186 16.486 25.4186 17.2311 24.969 17.6813L15.6667 26.9952ZM24.1473 27.7248C23.279 27.7248 22.5814 27.0263 22.5814 26.1725C22.5814 25.3187 23.279 24.6202 24.1317 24.6202C24.9845 24.6202 25.6821 25.3187 25.6821 26.1725C25.6821 27.0263 25 27.7248 24.1473 27.7248Z" fill="#F18CE7"/>
</svg>