<svg viewBox="0 0 96 96" fill="none" xmlns="http://www.w3.org/2000/svg">
  <path d="M95.2099 20.0139C94.9283 15.0071 92.8125 10.2794 89.2664 6.73341C85.7204 3.18746 80.9926 1.0717 75.9856 0.790107C57.3438 -0.263369 38.6573 -0.263369 20.0155 0.790107C15.0085 1.07186 10.2806 3.18764 6.73442 6.73354C3.18824 10.2794 1.07215 15.0071 0.790125 20.0139C-0.263375 38.6558 -0.263375 57.3422 0.790125 75.9841C1.0722 80.9909 3.1883 85.7185 6.73447 89.2644C10.2806 92.8103 15.0085 94.9261 20.0155 95.2079C38.6572 96.264 57.3438 96.264 75.9856 95.2079C80.9925 94.9263 85.7204 92.8105 89.2664 89.2646C92.8124 85.7186 94.9282 80.9909 95.2099 75.9841C96.2634 57.3422 96.2634 38.6558 95.2099 20.0139V20.0139Z" fill="white"/>
  <path d="M35.812 22.1841C36.5294 13.5327 40.8109 10 50.1841 10H50.485C60.8302 10 64.9729 14.3017 64.9729 25.0438V40.7125C64.9729 51.4547 60.8302 55.7563 50.485 55.7563H50.1841C40.8804 55.7563 36.5989 52.2717 35.8351 43.7645" stroke="#F18CE7" stroke-width="5" stroke-linecap="round" stroke-linejoin="round"/>
  <path d="M49.9296 32.8542H23.5921" stroke="#F18CE7" stroke-width="5" stroke-linecap="round" stroke-linejoin="round"/>
  <path d="M28.7531 24.8033L21 32.8539L28.7531 40.9045" stroke="#F18CE7" stroke-width="5" stroke-linecap="round" stroke-linejoin="round"/>
  <path d="M18.48 61.048C19.2267 61.048 19.9413 61.1227 20.624 61.272C21.3067 61.4 21.9253 61.56 22.48 61.752C23.056 61.9227 23.536 62.104 23.92 62.296C24.3253 62.488 24.6027 62.6373 24.752 62.744L23.184 65.496L22.768 65.272C22.4907 65.1227 22.128 64.952 21.68 64.76C21.232 64.568 20.7413 64.3973 20.208 64.248C19.6747 64.0987 19.1627 64.024 18.672 64.024C17.904 64.024 17.232 64.2053 16.656 64.568C16.1013 64.9307 15.824 65.496 15.824 66.264C15.824 67.224 16.1333 68.0133 16.752 68.632C17.3707 69.2293 18.3413 69.784 19.664 70.296C20.5173 70.6373 21.2747 71 21.936 71.384C22.6187 71.7467 23.1947 72.1733 23.664 72.664C24.1333 73.1547 24.4853 73.72 24.72 74.36C24.976 75 25.104 75.768 25.104 76.664C25.104 77.4747 24.944 78.2747 24.624 79.064C24.3253 79.8533 23.8667 80.5573 23.248 81.176C22.6507 81.7733 21.904 82.264 21.008 82.648C20.112 83.0107 19.0773 83.192 17.904 83.192C17.072 83.192 16.2827 83.1067 15.536 82.936C14.7893 82.7653 14.1067 82.5733 13.488 82.36C12.8907 82.1253 12.368 81.8907 11.92 81.656C11.4933 81.4213 11.1733 81.24 10.96 81.112L12.304 78.168L12.88 78.488C13.264 78.7013 13.7333 78.936 14.288 79.192C14.8427 79.448 15.4293 79.6827 16.048 79.896C16.6667 80.1093 17.2 80.216 17.648 80.216C18.7787 80.216 19.6213 79.9387 20.176 79.384C20.7307 78.8293 21.008 78.0507 21.008 77.048C21.008 76.5787 20.9333 76.1733 20.784 75.832C20.6347 75.4693 20.4213 75.16 20.144 74.904C19.8667 74.648 19.5253 74.424 19.12 74.232C18.736 74.0187 18.2987 73.816 17.808 73.624C16.848 73.2187 15.984 72.8133 15.216 72.408C14.4693 72.0027 13.8293 71.544 13.296 71.032C12.7627 70.4987 12.3573 69.9013 12.08 69.24C11.8027 68.5573 11.664 67.7467 11.664 66.808C11.664 66.0187 11.8347 65.2827 12.176 64.6C12.5173 63.896 12.9867 63.288 13.584 62.776C14.1813 62.2427 14.896 61.8267 15.728 61.528C16.56 61.208 17.4773 61.048 18.48 61.048ZM33.7538 61.336H36.7618L45.1138 83H41.0498L39.0658 77.336H31.2578L29.2098 83H25.4337L33.7538 61.336ZM38.0738 74.52C37.3911 72.6 36.8044 70.8613 36.3138 69.304C35.8231 67.7253 35.4498 66.488 35.1938 65.592C34.8951 66.552 34.5004 67.8107 34.0098 69.368C33.5191 70.9253 32.9431 72.6427 32.2818 74.52H38.0738ZM47.2088 61.336H51.0168V80.12H59.1128V83H47.2088V61.336ZM61.365 61.336H65.173V83H61.365V61.336ZM69.6463 61.336C69.7956 61.336 70.1369 61.336 70.6703 61.336C71.2036 61.3147 71.8009 61.304 72.4623 61.304C73.1236 61.304 73.7849 61.304 74.4463 61.304C75.1076 61.2827 75.6516 61.272 76.0783 61.272C78.7236 61.272 80.6543 61.7947 81.8703 62.84C83.0863 63.864 83.6943 65.3147 83.6943 67.192C83.6943 68.4293 83.3849 69.528 82.7663 70.488C82.1476 71.448 81.1343 72.1413 79.7263 72.568C80.3236 72.9093 80.8569 73.3787 81.3263 73.976C81.7956 74.5733 82.2543 75.3093 82.7023 76.184C83.1503 77.0373 83.6089 78.04 84.0783 79.192C84.5476 80.3227 85.0916 81.592 85.7103 83H81.5823C80.8569 81.3147 80.2169 79.8747 79.6623 78.68C79.1289 77.4853 78.6063 76.5147 78.0943 75.768C77.5823 75.0213 77.0276 74.4773 76.4303 74.136C75.8543 73.7947 75.1716 73.624 74.3823 73.624H73.4543V83H69.6463V61.336ZM73.4543 70.84H75.9183C77.1129 70.84 78.0303 70.5733 78.6703 70.04C79.3316 69.5067 79.6623 68.7173 79.6623 67.672C79.6623 67.2027 79.5983 66.744 79.4703 66.296C79.3423 65.848 79.1183 65.4533 78.7983 65.112C78.4996 64.7707 78.0836 64.504 77.5503 64.312C77.0383 64.0987 76.3876 63.992 75.5983 63.992H73.4543V70.84Z" fill="#F18CE7"/>
</svg>