<?xml version="1.0" encoding="utf-8"?>
<!-- Generator: Adobe Illustrator 25.2.1, SVG Export Plug-In . SVG Version: 6.00 Build 0)  -->
<svg version="1.1" id="Layer_1" xmlns="http://www.w3.org/2000/svg" xmlns:xlink="http://www.w3.org/1999/xlink" x="0px" y="0px"
	 viewBox="0 0 96 96" style="enable-background:new 0 0 96 96;" xml:space="preserve">
<style type="text/css">
	.st0{fill:#FFFFFF;}
	.st1{fill:none;stroke:#F18CE7;stroke-width:5;stroke-linecap:round;stroke-linejoin:round;}
	.st2{fill:#F18CE7;}
</style>
<path class="st0" d="M95.2,20c-0.3-5-2.4-9.7-5.9-13.3C85.7,3.2,81,1.1,76,0.8c-18.6-1.1-37.3-1.1-56,0c-5,0.3-9.7,2.4-13.3,5.9
	C3.2,10.3,1.1,15,0.8,20c-1.1,18.6-1.1,37.3,0,56c0.3,5,2.4,9.7,5.9,13.3c3.5,3.5,8.3,5.7,13.3,5.9c18.6,1.1,37.3,1.1,56,0
	c5-0.3,9.7-2.4,13.3-5.9c3.5-3.5,5.7-8.3,5.9-13.3C96.3,57.3,96.3,38.7,95.2,20L95.2,20z"/>
<path class="st1" d="M35.8,26.2c0.7-8.7,5-12.2,14.4-12.2h0.3C60.8,14,65,18.3,65,29v15.7c0,10.7-4.1,15-14.5,15h-0.3
	c-9.3,0-13.6-3.5-14.3-12"/>
<path class="st1" d="M49.9,36.9H23.6"/>
<path class="st1" d="M28.8,28.8L21,36.9l7.8,8.1"/>
<path class="st2" d="M22.8,64.3c0.6,0,1.2,0.1,1.8,0.2c0.6,0.1,1.1,0.2,1.6,0.4c0.5,0.1,0.9,0.3,1.2,0.5c0.3,0.2,0.6,0.3,0.7,0.4
	l-1.3,2.3l-0.4-0.2c-0.2-0.1-0.5-0.3-0.9-0.4c-0.4-0.2-0.8-0.3-1.2-0.4c-0.4-0.1-0.9-0.2-1.3-0.2c-0.6,0-1.2,0.2-1.7,0.5
	c-0.5,0.3-0.7,0.8-0.7,1.4c0,0.8,0.3,1.5,0.8,2c0.5,0.5,1.3,1,2.5,1.4c0.7,0.3,1.4,0.6,1.9,0.9c0.6,0.3,1.1,0.7,1.5,1.1
	c0.4,0.4,0.7,0.9,0.9,1.4c0.2,0.5,0.3,1.2,0.3,1.9c0,0.7-0.1,1.4-0.4,2c-0.3,0.7-0.6,1.3-1.2,1.8c-0.5,0.5-1.1,0.9-1.9,1.2
	c-0.8,0.3-1.6,0.5-2.6,0.5c-0.7,0-1.4-0.1-2-0.2c-0.6-0.1-1.2-0.3-1.7-0.5c-0.5-0.2-0.9-0.4-1.3-0.6c-0.4-0.2-0.6-0.4-0.8-0.5
	l1.1-2.5l0.5,0.3c0.3,0.2,0.7,0.4,1.2,0.6c0.5,0.2,1,0.4,1.5,0.6c0.5,0.2,1,0.3,1.4,0.3c1,0,1.7-0.2,2.1-0.7c0.5-0.5,0.7-1.1,0.7-2
	c0-0.4-0.1-0.7-0.2-1c-0.1-0.3-0.3-0.6-0.5-0.8c-0.2-0.2-0.5-0.4-0.9-0.6c-0.3-0.2-0.7-0.4-1.1-0.5c-0.8-0.3-1.5-0.7-2.2-1
	c-0.6-0.3-1.2-0.7-1.6-1.2c-0.4-0.4-0.8-1-1-1.5c-0.2-0.6-0.4-1.3-0.4-2.1c0-0.7,0.1-1.3,0.4-1.9c0.3-0.6,0.7-1.1,1.2-1.5
	c0.5-0.4,1.1-0.8,1.8-1.1C21.2,64.5,22,64.3,22.8,64.3z M35.7,64.6h2.5l7,18.3h-3.4l-1.7-4.8h-6.6l-1.7,4.8h-3.2L35.7,64.6z
	 M39.3,75.7c-0.6-1.6-1.1-3.1-1.5-4.4c-0.4-1.3-0.7-2.4-0.9-3.1c-0.3,0.8-0.6,1.9-1,3.2c-0.4,1.3-0.9,2.8-1.5,4.3H39.3z M47,64.6
	h3.2v15.8h6.8v2.4H47V64.6z M59,64.6h3.2v18.3H59V64.6z M66,64.6c0.1,0,0.4,0,0.9,0c0.4,0,1,0,1.5,0c0.6,0,1.1,0,1.7,0
	c0.6,0,1,0,1.4,0c2.2,0,3.9,0.4,4.9,1.3c1,0.9,1.5,2.1,1.5,3.7c0,1-0.3,2-0.8,2.8c-0.5,0.8-1.4,1.4-2.6,1.8c0.5,0.3,1,0.7,1.4,1.2
	c0.4,0.5,0.8,1.1,1.2,1.9c0.4,0.7,0.8,1.6,1.2,2.5c0.4,1,0.9,2,1.4,3.2h-3.5c-0.6-1.4-1.2-2.6-1.6-3.6c-0.5-1-0.9-1.8-1.3-2.5
	s-0.9-1.1-1.4-1.4c-0.5-0.3-1.1-0.4-1.7-0.4h-0.8v7.9H66V64.6z M69.2,72.6h2.1c1,0,1.8-0.2,2.3-0.7c0.6-0.4,0.8-1.1,0.8-2
	c0-0.4-0.1-0.8-0.2-1.2s-0.3-0.7-0.6-1c-0.3-0.3-0.6-0.5-1.1-0.7c-0.4-0.2-1-0.3-1.6-0.3h-1.8V72.6z"/>
</svg>
