<svg viewBox="0 0 40 40" fill="none" xmlns="http://www.w3.org/2000/svg">
  <path d="M39.6478 8.33451C39.5306 6.24949 38.6495 4.28069 37.1728 2.80403C35.6962 1.32737 33.7274 0.446292 31.6423 0.329028C23.8794 -0.109676 16.0979 -0.109676 8.33495 0.329028C6.24991 0.446358 4.2811 1.32744 2.80438 2.80408C1.32767 4.28072 0.446472 6.24947 0.329028 8.33451C-0.109676 16.0976 -0.109676 23.8793 0.329028 31.6424C0.446491 33.7275 1.32769 35.6962 2.8044 37.1728C4.28112 38.6495 6.24991 39.5306 8.33495 39.6479C16.0979 40.0877 23.8794 40.0877 31.6423 39.6479C33.7274 39.5306 35.6961 38.6495 37.1728 37.1729C38.6495 35.6962 39.5305 33.7274 39.6478 31.6424C40.0865 23.8793 40.0865 16.0976 39.6478 8.33451V8.33451Z" fill="white"/>
  <path d="M9 12.5H32M9 19H32M9 26H32" stroke="#F18CE7" stroke-width="3"/>
</svg>