<svg viewBox="0 0 43 43" fill="none" xmlns="http://www.w3.org/2000/svg">
  <path d="M20.3964 40.7928C9.15351 40.7928 0 31.6393 0 20.3964C0 9.15351 9.15351 0 20.3964 0C31.6393 0 40.7928 9.15351 40.7928 20.3964C40.7928 31.6393 31.6393 40.7928 20.3964 40.7928ZM20.3964 2.98484C10.7852 2.98484 2.98484 10.8051 2.98484 20.3964C2.98484 29.9877 10.7852 37.808 20.3964 37.808C30.0076 37.808 37.808 29.9877 37.808 20.3964C37.808 10.8051 30.0076 2.98484 20.3964 2.98484Z" fill="#F18CE7"/>
  <path d="M41.2911 42.7826C40.913 42.7826 40.5349 42.6433 40.2364 42.3448L36.2567 38.365C35.6796 37.7879 35.6796 36.8328 36.2567 36.2557C36.8337 35.6786 37.7889 35.6786 38.3659 36.2557L42.3457 40.2355C42.9228 40.8126 42.9228 41.7677 42.3457 42.3448C42.0472 42.6433 41.6692 42.7826 41.2911 42.7826Z" fill="#F18CE7"/>
</svg>